<svg width="16" height="21" viewBox="0 0 16 21" fill="none" xmlns="http://www.w3.org/2000/svg">
<path d="M11.6052 20.9995C10.2395 21.0175 8.80098 20.5678 7.50812 19.7225C6.26988 18.9131 5.23195 17.8879 4.46716 16.6468C3.33819 14.8302 2.24563 12.9776 1.2077 11.107C0.461116 9.77603 0.0605116 8.31914 0.00588372 6.7903C-0.0851628 4.27222 0.879931 2.22178 2.93758 0.692943C3.24714 0.459121 3.59312 0.279258 3.93909 0.117382C4.50358 -0.134427 5.01344 0.0454363 5.43226 0.405162C5.77823 0.71093 6.106 1.03468 6.36093 1.4124C6.98005 2.34768 7.56274 3.31894 7.85409 4.41611C8.16365 5.6032 7.78126 6.48453 6.70691 7.07808C6.50661 7.186 6.3063 7.32989 6.106 7.41982C5.39584 7.74357 5.30479 8.33712 5.39584 8.98463C5.43226 9.18248 5.5233 9.39832 5.61435 9.57818C6.39735 10.9272 7.19856 12.2761 7.98156 13.6431C8.18186 14.0028 8.49142 14.2546 8.87382 14.4165C9.25621 14.5964 9.63861 14.5964 10.021 14.3625C10.2577 14.2186 10.5127 14.0927 10.7494 13.9488C11.7873 13.3553 12.7342 13.4632 13.6082 14.2726C13.7903 14.4345 13.9724 14.6143 14.1181 14.8122C14.8465 15.8014 15.5748 16.7907 15.9026 17.9778C15.9937 18.2835 16.0119 18.6253 15.9937 18.949C15.9754 19.3807 15.7205 19.6685 15.3563 19.9023C14.282 20.6038 13.0984 20.9455 11.6052 20.9995ZM11.9876 19.9203C12.4793 19.9383 13.8085 19.6145 14.5733 19.1109C14.9739 18.8591 14.9921 18.8771 14.9011 18.4095C14.8829 18.3555 14.8829 18.3195 14.8647 18.2656C14.5915 17.3303 14.027 16.5389 13.4808 15.7655C13.244 15.4417 12.9527 15.1539 12.6614 14.9021C12.2972 14.5964 11.8966 14.5604 11.4777 14.8302C11.1682 15.028 10.8404 15.2259 10.4944 15.3878C10.2759 15.4957 10.021 15.6036 9.76607 15.6216C8.58247 15.7295 7.69021 15.2259 7.0893 14.2366C6.25168 12.8697 5.45047 11.4847 4.66747 10.0998C4.50358 9.79401 4.35791 9.45227 4.30328 9.11053C4.15761 8.08531 4.48537 7.04211 5.5233 6.52051C5.83286 6.35863 6.12421 6.17877 6.43377 5.9989C6.72512 5.83703 6.87079 5.58522 6.87079 5.24348C6.87079 5.0816 6.85258 4.90174 6.81616 4.73986C6.47019 3.55277 5.86928 2.49157 5.06807 1.52031C4.95881 1.37642 4.79493 1.26851 4.63105 1.16059C4.55821 1.12461 4.43075 1.10663 4.35791 1.1426C4.06656 1.30448 3.79342 1.44837 3.5567 1.62823C1.97249 2.77935 1.17128 4.34416 1.11665 6.28668C1.08023 7.83351 1.48084 9.30838 2.22742 10.6574C3.21072 12.42 4.24865 14.1647 5.28658 15.8914C5.83286 16.8087 6.56123 17.6001 7.41707 18.2835C8.63709 19.2728 10.0028 19.8843 11.9876 19.9203Z" fill="white"/>
</svg>
