<svg width="24" height="24" viewBox="0 0 24 24" fill="none" xmlns="http://www.w3.org/2000/svg">
<g clip-path="url(#clip0_124_177)">
<rect x="24" y="24" width="24" height="24" rx="12" transform="rotate(-180 24 24)" fill="#C3E7FB" fill-opacity="0.59"/>
<path d="M14.9732 10.1934C15.0864 10.0695 15.2392 10 15.3984 10C15.5577 10 15.7105 10.0695 15.8236 10.1934C15.8795 10.2542 15.9238 10.3267 15.9541 10.4067C15.9844 10.4866 16 10.5725 16 10.6591C16 10.7458 15.9844 10.8317 15.9541 10.9116C15.9238 10.9916 15.8795 11.0641 15.8236 11.1249L12.4256 14.8069C12.3122 14.9306 12.1593 15 12 15C11.8407 15 11.6878 14.9306 11.5744 14.8069L8.17639 11.1249C8.12052 11.0641 8.07616 10.9916 8.04588 10.9116C8.01559 10.8317 8 10.7458 8 10.6591C8 10.5725 8.01559 10.4866 8.04588 10.4067C8.07616 10.3267 8.12052 10.2542 8.17639 10.1934C8.28954 10.0695 8.44234 10 8.60157 10C8.76081 10 8.9136 10.0695 9.02676 10.1934L12.0013 13.213L14.9732 10.1934Z" fill="#181059"/>
</g>
<defs>
<clipPath id="clip0_124_177">
<rect width="24" height="24" fill="white"/>
</clipPath>
</defs>
</svg>
