<svg width="36" height="36" viewBox="0 0 36 36" fill="none" xmlns="http://www.w3.org/2000/svg">
<path d="M28 30H6V8H19.22L21.22 6H6C5.46957 6 4.96086 6.21071 4.58579 6.58579C4.21071 6.96086 4 7.46957 4 8V30C4 30.5304 4.21071 31.0391 4.58579 31.4142C4.96086 31.7893 5.46957 32 6 32H28C28.5304 32 29.0391 31.7893 29.4142 31.4142C29.7893 31.0391 30 30.5304 30 30V15L28 17V30Z" fill="white"/>
<path d="M33.5295 5.84019L30.1595 2.47019C30.0099 2.32022 29.8322 2.20123 29.6366 2.12005C29.441 2.03886 29.2313 1.99707 29.0195 1.99707C28.8077 1.99707 28.598 2.03886 28.4023 2.12005C28.2067 2.20123 28.029 2.32022 27.8795 2.47019L14.1695 16.2602L13.0595 21.0702C13.0122 21.3033 13.0172 21.5441 13.074 21.7751C13.1309 22.0061 13.2383 22.2216 13.3884 22.4062C13.5385 22.5907 13.7277 22.7397 13.9423 22.8424C14.1569 22.9452 14.3916 22.999 14.6295 23.0002C14.7524 23.0137 14.8765 23.0137 14.9995 23.0002L19.8495 21.9302L33.5295 8.12019C33.6794 7.97063 33.7984 7.79295 33.8796 7.59733C33.9608 7.40171 34.0026 7.19199 34.0026 6.98019C34.0026 6.76839 33.9608 6.55867 33.8796 6.36305C33.7984 6.16743 33.6794 5.98975 33.5295 5.84019V5.84019ZM18.8095 20.0802L15.1495 20.8902L15.9995 17.2602L26.3195 6.87019L29.1395 9.69019L18.8095 20.0802ZM30.2695 8.56019L27.4495 5.74019L28.9995 4.16019L31.8395 7.00019L30.2695 8.56019Z" fill="white"/>
</svg>
