<svg width="24" height="15" viewBox="0 0 24 15" fill="none" xmlns="http://www.w3.org/2000/svg">
<path d="M12 0C6.54545 0 1.88727 3.11 0 7.5C1.88727 11.89 6.54545 15 12 15C17.4545 15 22.1127 11.89 24 7.5C22.1127 3.11 17.46 0 12 0ZM12 12.5C8.98909 12.5 6.54545 10.26 6.54545 7.5C6.54545 4.74 8.98909 2.5 12 2.5C15.0109 2.5 17.4545 4.74 17.4545 7.5C17.4545 10.26 15.0109 12.5 12 12.5ZM12 4.5C10.1945 4.5 8.72727 5.845 8.72727 7.5C8.72727 9.155 10.1945 10.5 12 10.5C13.8055 10.5 15.2727 9.155 15.2727 7.5C15.2727 5.845 13.8055 4.5 12 4.5Z" fill="#E8631C"/>
</svg>
