<svg width="24" height="20" viewBox="0 0 24 20" fill="none" xmlns="http://www.w3.org/2000/svg">
<path d="M23.9977 9.03763C23.9145 9.19081 23.8313 9.3381 23.7545 9.49128C22.9351 11.1409 21.7764 12.549 20.2527 13.7331C20.1951 13.686 20.1439 13.6507 20.0927 13.6094C19.126 12.7198 18.1594 11.8243 17.1863 10.9406C17.0711 10.8345 17.0647 10.7579 17.1095 10.6224C18.1978 7.72973 16.3221 4.67794 13.0636 4.04756C12.097 3.85903 11.1367 3.92384 10.2021 4.23608C10.042 4.28911 9.9396 4.27732 9.81796 4.1595C9.15219 3.535 8.4672 2.91639 7.79502 2.29779C7.74381 2.25066 7.699 2.20353 7.60938 2.11515C8.26235 1.95608 8.87051 1.77345 9.49788 1.6674C12.6795 1.10771 15.6947 1.56725 18.4923 3.07546C20.8993 4.37159 22.6598 6.21562 23.7993 8.56043C23.8569 8.68415 23.9273 8.80198 23.9977 8.91981C23.9977 8.94926 23.9977 8.9905 23.9977 9.03763Z" fill="#E8631C"/>
<path d="M21.745 17.7569C21.3225 18.1575 20.868 18.5758 20.4134 19.0059C20.3558 18.9588 20.2918 18.9057 20.2342 18.8527C19.1331 17.8394 18.032 16.826 16.9373 15.8068C16.8157 15.6949 16.7197 15.6713 16.5532 15.7302C14.7351 16.3724 12.853 16.6257 10.9133 16.4608C7.40518 16.1603 4.486 14.7817 2.17498 12.3309C1.25954 11.3588 0.555348 10.2688 0.0240064 9.08465C-0.00800213 9.01395 -0.00800213 8.9138 0.0240064 8.8431C0.837023 7.01674 2.06615 5.46729 3.71139 4.20651C3.80101 4.13581 3.89064 4.06512 3.98026 3.99442C3.99306 3.98264 3.99947 3.97085 4.01227 3.95907C3.02641 3.05178 2.04054 2.1445 1.06748 1.25488C1.55401 0.807132 2.00213 0.388837 2.43105 0C8.85196 5.90325 15.2985 11.8301 21.745 17.7569ZM7.10429 6.7693C6.03521 8.61333 6.47693 11.0406 8.12857 12.5312C9.80582 14.0453 12.3857 14.4341 14.351 13.4561C14.2934 13.4031 14.2486 13.3501 14.191 13.2971C13.7493 12.8905 13.3011 12.4899 12.8658 12.0716C12.7378 11.9479 12.6098 11.9302 12.4369 11.9361C12.04 11.9479 11.6303 11.9774 11.2526 11.8949C9.53054 11.5296 8.48706 10.0862 8.74313 8.47783C8.75594 8.40713 8.76234 8.30108 8.71753 8.25984C8.19259 7.76496 7.65484 7.27597 7.10429 6.7693Z" fill="#E8631C"/>
<path d="M15.2534 9.0965C14.1011 8.03603 12.9872 7.01092 11.8477 5.96223C12.7311 5.92689 13.4865 6.18022 14.1395 6.70456C14.9077 7.32906 15.2598 8.12441 15.2534 9.0965Z" fill="#E8631C"/>
</svg>
