<svg width="52" height="52" viewBox="0 0 52 52" fill="none" xmlns="http://www.w3.org/2000/svg">
<path d="M51.6347 25.6815L48.9501 28.1169L51.0758 31.0514L47.9422 32.868L49.3992 36.1817L45.9662 37.3096L46.7047 40.8629L43.1021 41.2522L43.0921 44.8653L39.4894 44.506L38.721 48.0393L35.278 46.9414L33.7911 50.2452L30.6575 48.4386L28.5118 51.3631L25.8173 48.9476L23.1228 51.3631L20.9772 48.4386L17.8336 50.2452L16.3467 46.9414L12.9037 48.0393L12.1452 44.506L8.54257 44.8653L8.52262 41.2522L4.92994 40.8529L5.66844 37.3096L2.22546 36.1817L3.68249 32.868L0.55886 31.0514L2.67454 28.1169L0 25.6815L2.67454 23.2461L0.55886 20.3117L3.68249 18.4851L2.22546 15.1714L5.66844 14.0435L4.92994 10.5002L8.53259 10.1109L8.54257 6.48776L12.1452 6.85706L12.9037 3.31375L16.3566 4.42166L17.8336 1.11789L20.9772 2.9145L23.1129 0L25.8173 2.41544L28.5118 0L30.6575 2.9145L33.7911 1.11789L35.278 4.42166L38.731 3.31375L39.4894 6.85706L43.0921 6.49774L43.1021 10.1109L46.7047 10.5002L45.9662 14.0435L49.4092 15.1714L47.9422 18.4851L51.0758 20.3117L48.9501 23.2461L51.6347 25.6815Z" fill="#4CB24D"/>
<path d="M45.4111 25.6796C45.4111 36.4396 36.6416 45.1667 25.8184 45.1667C14.9953 45.1667 6.22573 36.4396 6.22573 25.6796C6.22573 14.9196 14.9953 6.19253 25.8184 6.19253C36.6416 6.19253 45.4111 14.9196 45.4111 25.6796Z" stroke="#8CD78D" stroke-width="0.9749"/>
</svg>
