<svg width="45" height="46" viewBox="0 0 45 46" fill="none" xmlns="http://www.w3.org/2000/svg">
<path d="M24.6617 42.5607C24.0744 42.4383 23.5114 42.1918 23.0201 41.8309L20.2343 39.7904C19.6111 39.3351 18.8191 39.1685 18.064 39.3383L14.6956 40.0952C13.5507 40.3515 12.3428 40.1206 11.3756 39.4627C10.4086 38.8033 9.75113 37.7615 9.57069 36.6052L9.04333 33.1921C8.92503 32.4269 8.48186 31.7506 7.82884 31.3385L4.9101 29.4921C3.92053 28.8647 3.22945 27.8462 3.01097 26.6964C2.79248 25.5466 3.06495 24.3458 3.75668 23.4L5.79714 20.6142C6.25284 19.9894 6.41755 19.1987 6.24923 18.4439L5.48927 15.0748C5.23242 13.933 5.46238 12.7218 6.1218 11.7548C6.78122 10.7879 7.82301 10.1304 8.97927 9.94996L12.3925 9.4226C13.1576 9.3043 13.834 8.86113 14.2461 8.20811L16.0924 5.28937C16.7198 4.2998 17.7383 3.60872 18.8881 3.39024C20.0395 3.17207 21.2387 3.44422 22.1845 4.13595L24.9703 6.17642C25.5935 6.63179 26.3855 6.79836 27.1406 6.6285L30.509 5.8716C31.6512 5.61322 32.8621 5.84471 33.829 6.50413C34.796 7.16355 35.4535 8.20534 35.6339 9.3616L36.1613 12.7748C36.2796 13.5399 36.7227 14.2163 37.3758 14.6284L40.2945 16.4747C41.2841 17.1022 41.9752 18.1206 42.1936 19.2705C42.4121 20.4203 42.1397 21.621 41.4479 22.5669L39.4075 25.3526C38.9518 25.9774 38.7871 26.7681 38.9554 27.5229L39.7123 30.8914C39.9691 32.0332 39.7392 33.2444 39.0797 34.2114C38.4203 35.1783 37.3785 35.8358 36.2223 36.0162L32.8091 36.5436C32.044 36.6619 31.3676 37.1051 30.9555 37.7581L29.1091 40.6768C28.4817 41.6664 27.4632 42.3575 26.3134 42.576C25.7651 42.6804 25.2016 42.6731 24.6617 42.5607ZM19.5157 37.8008C20.1015 37.9228 20.6615 38.1687 21.1559 38.5302L23.9432 40.571C24.5494 41.0164 25.2886 41.1832 26.0251 41.0414C26.7628 40.9014 27.3894 40.475 27.7909 39.8421L29.6373 36.9234C30.2917 35.8884 31.3617 35.1873 32.572 35.0005L35.9852 34.4732C36.727 34.3596 37.3684 33.9538 37.7898 33.3331C38.2126 32.7126 38.3549 31.9683 38.1898 31.2365L37.4314 27.8677C37.1633 26.6725 37.4242 25.4198 38.1472 24.431L40.188 21.6438C40.6316 21.0388 40.7984 20.2996 40.6584 19.5619C40.5184 18.8242 40.092 18.1975 39.4591 17.796L36.5404 15.9497C35.5054 15.2952 34.8043 14.2252 34.6176 13.015L34.0902 9.60176C33.9766 8.85998 33.5709 8.21852 32.9501 7.79717C32.3299 7.37277 31.5868 7.23233 30.8535 7.39715L27.4847 8.15558C26.2898 8.42212 25.0387 8.16151 24.0496 7.44002L21.2614 5.39586C20.6549 4.95195 19.9172 4.78551 19.1795 4.92548C18.4418 5.06544 17.8152 5.49185 17.4137 6.12473L15.5673 9.04347C14.9129 10.0785 13.841 10.7808 12.6323 10.9678L9.21911 11.4952C8.47733 11.6088 7.83587 12.0146 7.41452 12.6353C6.99012 13.2555 6.84936 14.0001 7.01297 14.7316L7.7714 18.1003C8.03947 19.2956 7.77854 20.5482 7.05552 21.537L5.01474 24.3243C4.57115 24.9293 4.40439 25.6685 4.54436 26.4062C4.68432 27.1439 5.11073 27.7705 5.74361 28.172L8.66235 30.0184C9.69736 30.6728 10.3984 31.7429 10.5852 32.9531L11.1126 36.3663C11.2261 37.1081 11.6319 37.7495 12.2527 38.1709C12.8731 38.5938 13.6159 38.7357 14.3492 38.5709L17.718 37.8125C18.3184 37.6806 18.93 37.6787 19.5157 37.8008ZM27.3137 7.39067L27.329 7.39386L27.3137 7.39067Z" fill="black"/>
<path d="M17.8883 18.8056C15.7807 18.3665 14.4221 16.293 14.8612 14.1854C15.3002 12.0779 17.3737 10.7193 19.4813 11.1583C21.5889 11.5973 22.9475 13.6708 22.5084 15.7784C22.0694 17.886 19.9959 19.2446 17.8883 18.8056ZM19.1627 12.6878C17.8978 12.4243 16.6541 13.2392 16.3906 14.504C16.1271 15.7689 16.942 17.0126 18.2069 17.2761C19.4718 17.5396 20.7155 16.7247 20.979 15.4598C21.2425 14.195 20.4275 12.9512 19.1627 12.6878Z" fill="black"/>
<path d="M25.7259 34.8022C23.6183 34.3631 22.2597 32.2896 22.6988 30.182C23.1378 28.0744 25.2113 26.7159 27.3189 27.1549C29.4265 27.5939 30.785 29.6674 30.346 31.775C29.907 33.8826 27.8335 35.2412 25.7259 34.8022ZM27.0003 28.6843C25.7354 28.4209 24.4917 29.2358 24.2282 30.5006C23.9647 31.7655 24.7796 33.0092 26.0445 33.2727C27.3093 33.5362 28.5531 32.7213 28.8166 31.4564C29.08 30.1916 28.2651 28.9478 27.0003 28.6843Z" fill="black"/>
<path d="M15.3373 31.0458C15.1966 31.0165 15.0623 30.9486 14.9522 30.8411C14.643 30.5405 14.6363 30.0444 14.9381 29.737L29.1488 15.1432C29.4506 14.8358 29.9437 14.8284 30.2529 15.129C30.5621 15.4296 30.5688 15.9257 30.267 16.2331L16.0563 30.8269C15.8635 31.0245 15.5896 31.0983 15.3373 31.0458Z" fill="black"/>
</svg>
