<svg width="13" height="14" viewBox="0 0 13 14" fill="none" xmlns="http://www.w3.org/2000/svg">
<path d="M0.866629 7.56836H5.46205V12.1638C5.46205 12.6309 5.84626 13.0226 6.32087 13.0226C6.79548 13.0226 7.17969 12.6309 7.17969 12.1638V7.56836H11.7751C12.2422 7.56836 12.6339 7.18415 12.6339 6.70954C12.6339 6.23493 12.2422 5.85073 11.7751 5.85073H7.17969V1.2553C7.17969 0.788225 6.79548 0.396484 6.32087 0.396484C5.84626 0.396484 5.46205 0.788225 5.46205 1.2553V5.85073H0.866629C0.399554 5.85073 0.0078125 6.23493 0.0078125 6.70954C0.0078125 7.18415 0.399554 7.56836 0.866629 7.56836Z" fill="#546287"/>
</svg>
