<svg width="16" height="15" viewBox="0 0 16 15" fill="none" xmlns="http://www.w3.org/2000/svg">
<path d="M9.53267 7.42948L15.6633 1.7297C16.0886 1.33434 16.0886 0.691881 15.6633 0.29652C15.2381 -0.0988401 14.5471 -0.0988401 14.1218 0.29652L7.99114 5.9963L1.86047 0.312994C1.43522 -0.0823667 0.744186 -0.0823667 0.318937 0.312994C-0.106312 0.708354 -0.106312 1.35081 0.318937 1.74618L6.44961 7.42948L0.336656 13.1293C-0.0885936 13.5246 -0.0885936 14.1671 0.336656 14.5624C0.761905 14.9578 1.45293 14.9578 1.87818 14.5624L8.00886 8.86266L14.1395 14.5624C14.5648 14.9578 15.2558 14.9578 15.6811 14.5624C16.1063 14.1671 16.1063 13.5246 15.6811 13.1293L9.53267 7.42948Z" fill="#777777"/>
</svg>
