<svg width="19" height="18" viewBox="0 0 19 18" fill="none" xmlns="http://www.w3.org/2000/svg">
<path fill-rule="evenodd" clip-rule="evenodd" d="M0 7.65C0 3.42501 3.50855 0 7.83659 0C12.1646 0 15.6732 3.42501 15.6732 7.65C15.6732 9.28844 15.1455 10.8066 14.2471 12.0513L17.3365 15.0651C17.7388 15.4575 17.7388 16.1043 17.3366 16.4967L16.8671 16.9547C16.4786 17.3336 15.8589 17.3337 15.4705 16.9547L12.3463 13.9071C11.071 14.7846 9.51546 15.3 7.83659 15.3C3.50855 15.3 0 11.875 0 7.65ZM7.83655 13.1143C4.75006 13.1143 2.23899 10.663 2.23899 7.65001C2.23899 4.637 4.75006 2.18572 7.83655 2.18572C10.923 2.18572 13.4341 4.637 13.4341 7.65001C13.4341 10.663 10.923 13.1143 7.83655 13.1143V13.1143Z" fill="#EA5437"/>
</svg>
