<svg width="15" height="19" viewBox="0 0 15 19" fill="none" xmlns="http://www.w3.org/2000/svg">
<path fill-rule="evenodd" clip-rule="evenodd" d="M7.30901 17.9999C3.90605 17.9999 1 17.4929 1 15.4623C1 13.4317 3.88761 11.5571 7.30901 11.5571C10.712 11.5571 13.618 13.4135 13.618 15.4441C13.618 17.4739 10.7304 17.9999 7.30901 17.9999Z" stroke="#EA5437" stroke-width="1.5" stroke-linecap="round" stroke-linejoin="round"/>
<path fill-rule="evenodd" clip-rule="evenodd" d="M7.30183 8.74336C9.535 8.74336 11.345 7.01031 11.345 4.87208C11.345 2.73385 9.535 1 7.30183 1C5.06867 1 3.25784 2.73385 3.25784 4.87208C3.25029 7.00309 5.04772 8.73614 7.27334 8.74336C7.2834 8.74336 7.29261 8.74336 7.30183 8.74336Z" stroke="#EA5437" stroke-width="1.5" stroke-linecap="round" stroke-linejoin="round"/>
</svg>
