<svg width="25" height="25" viewBox="0 0 25 25" fill="none" xmlns="http://www.w3.org/2000/svg">
<g clip-path="url(#clip0_333_1104)">
<rect opacity="0.3" x="0.554688" y="0.0507812" width="24" height="24" rx="12" fill="#5CBAF0"/>
<path d="M9.58144 13.8574C9.46829 13.9813 9.31549 14.0508 9.15626 14.0508C8.99703 14.0508 8.84423 13.9813 8.73108 13.8574C8.67521 13.7966 8.63085 13.7241 8.60056 13.6441C8.57028 13.5642 8.55469 13.4783 8.55469 13.3916C8.55469 13.3049 8.57028 13.2191 8.60056 13.1392C8.63085 13.0592 8.67521 12.9867 8.73108 12.9259L12.1291 9.24384C12.2425 9.12014 12.3954 9.05078 12.5547 9.05078C12.714 9.05078 12.8669 9.12014 12.9803 9.24384L16.3783 12.9259C16.4342 12.9867 16.4785 13.0592 16.5088 13.1392C16.5391 13.2191 16.5547 13.3049 16.5547 13.3916C16.5547 13.4783 16.5391 13.5642 16.5088 13.6441C16.4785 13.7241 16.4342 13.7966 16.3783 13.8574C16.2651 13.9813 16.1123 14.0508 15.9531 14.0508C15.7939 14.0508 15.6411 13.9813 15.5279 13.8574L12.5534 10.8378L9.58144 13.8574Z" fill="#F6F5FA"/>
</g>
<defs>
<clipPath id="clip0_333_1104">
<rect width="24" height="24" fill="white" transform="translate(24.5547 24.0508) rotate(180)"/>
</clipPath>
</defs>
</svg>
