<svg width="48" height="48" viewBox="0 0 48 48" fill="none" xmlns="http://www.w3.org/2000/svg">
<path d="M24 48C37.255 48 48 37.255 48 24C48 10.745 37.255 0 24 0C10.745 0 0 10.745 0 24C0 37.255 10.745 48 24 48Z" fill="#25D366"/>
<path fill-rule="evenodd" clip-rule="evenodd" d="M24.791 37.3528H24.786C22.397 37.3518 20.05 36.7528 17.966 35.6148L10.4 37.5998L12.425 30.2048C11.1739 28.0353 10.5168 25.5742 10.52 23.0698C10.523 15.2018 16.925 8.7998 24.791 8.7998C28.609 8.8018 32.192 10.2878 34.887 12.9848C36.2159 14.3083 37.2691 15.8821 37.9857 17.6152C38.7023 19.3483 39.0682 21.2064 39.062 23.0818C39.059 30.9478 32.66 37.3488 24.792 37.3518L24.791 37.3528ZM18.316 33.0318L18.749 33.2888C20.577 34.3714 22.6625 34.9423 24.787 34.9418H24.792C31.329 34.9418 36.65 29.6218 36.652 23.0808C36.6571 21.5221 36.353 19.9778 35.7574 18.5373C35.1618 17.0968 34.2865 15.7888 33.182 14.6888C32.0838 13.583 30.7771 12.7061 29.3377 12.109C27.8982 11.5118 26.3545 11.2061 24.796 11.2098C18.253 11.2098 12.932 16.5308 12.93 23.0708C12.9265 25.3041 13.5551 27.4927 14.743 29.3838L15.025 29.8318L13.827 34.2098L18.317 33.0318H18.316ZM31.493 26.1538C31.741 26.2738 31.91 26.3548 31.981 26.4748C32.071 26.6238 32.071 27.3378 31.773 28.1708C31.476 29.0038 30.051 29.7638 29.366 29.8658C28.752 29.9578 27.974 29.9958 27.12 29.7258C26.4296 29.5112 25.7509 29.2602 25.087 28.9738C21.745 27.5298 19.485 24.2898 19.058 23.6778C19.028 23.6348 19.008 23.6048 18.996 23.5898L18.993 23.5858C18.804 23.3338 17.54 21.6458 17.54 19.9008C17.54 18.2578 18.347 17.3968 18.718 17.0008L18.788 16.9258C18.9071 16.79 19.0529 16.6803 19.2164 16.6035C19.3799 16.5268 19.5575 16.4846 19.738 16.4798C19.977 16.4798 20.215 16.4818 20.422 16.4918C20.448 16.4938 20.475 16.4938 20.502 16.4928C20.71 16.4928 20.969 16.4908 21.225 17.1048C21.323 17.3408 21.467 17.6908 21.618 18.0608C21.925 18.8078 22.264 19.6328 22.324 19.7518C22.414 19.9308 22.473 20.1388 22.354 20.3768L22.304 20.4788C22.214 20.6608 22.149 20.7948 21.997 20.9718C21.937 21.0418 21.876 21.1158 21.814 21.1918C21.692 21.3408 21.569 21.4898 21.462 21.5968C21.284 21.7738 21.098 21.9668 21.306 22.3238C21.514 22.6808 22.23 23.8488 23.29 24.7938C24.43 25.8108 25.42 26.2408 25.922 26.4578C26.02 26.5008 26.099 26.5348 26.157 26.5638C26.514 26.7428 26.722 26.7138 26.93 26.4748C27.138 26.2368 27.821 25.4338 28.059 25.0768C28.297 24.7198 28.534 24.7798 28.861 24.8978C29.188 25.0178 30.941 25.8798 31.298 26.0578L31.493 26.1538Z" fill="#FDFDFD"/>
</svg>
