<svg width="13" height="13" viewBox="0 0 13 13" fill="none" xmlns="http://www.w3.org/2000/svg">
<path d="M0.483232 11.3316C0.166826 11.648 0.151759 12.213 0.490766 12.5445C0.822239 12.8759 1.38725 12.8684 1.70366 12.552L6.31415 7.93399L10.9322 12.552C11.2561 12.8759 11.8136 12.8759 12.1451 12.5445C12.469 12.2055 12.4765 11.6555 12.1451 11.3316L7.53457 6.71356L12.1451 2.10307C12.4765 1.77913 12.4765 1.22165 12.1451 0.89018C11.8061 0.56624 11.2561 0.558707 10.9322 0.882646L6.31415 5.50067L1.70366 0.882646C1.38725 0.56624 0.814705 0.551173 0.490766 0.89018C0.159292 1.22165 0.166826 1.78666 0.483232 2.10307L5.10126 6.71356L0.483232 11.3316Z" fill="#546287"/>
</svg>
